<svg viewBox="0 0 116.1 18.7" xmlns="http://www.w3.org/2000/svg"><defs><style>.border,.star{fill:#bebebe}</style></defs><path class="border" d="M10 2.3l2.3 4 .3.5.5.1 4.6.9-3.1 3.4-.4.5.1.5.5 4.6-4.3-1.9-.5-.2-.5.2-4.3 1.9.5-4.6.1-.5-.4-.4-3.1-3.4L6.9 7l.5-.1.3-.5L10 2.3M10 0L6.6 5.8 0 7.1 4.6 12l-.8 6.7L10 16l6.2 2.7-.7-6.6L20 7.2l-6.6-1.4L10 0zm24 2.3l2.3 4 .3.5.5.1 4.6.9-3.1 3.4-.4.5.1.5.5 4.6-4.3-1.9-.5-.2-.5.2-4.3 1.9.5-4.6.1-.5-.4-.4-3.1-3.4 4.6-.9.5-.1.3-.5L34 2.3M33.9 0l-3.4 5.8-6.6 1.3 4.6 4.9-.8 6.7 6.2-2.7 6.2 2.7-.7-6.6L44 7.2l-6.6-1.4L33.9 0zM82 2.3l2.3 4 .3.5.5.1 4.6.9-3.1 3.4-.4.5.1.5.5 4.6-4.3-1.9-.5-.2-.5.2-4.3 1.9.5-4.6.1-.5-.4-.4-3.1-3.4 4.6-.9.5-.1.3-.5L82 2.3M82 0l-3.4 5.8L72 7.1l4.6 4.9-.8 6.7L82 16l6.2 2.7-.7-6.6 4.6-4.9-6.6-1.4L82 0zm24 2.3l2.3 4 .3.5.5.1 4.6.9-3.1 3.4-.4.4.1.5.5 4.6-4.3-1.9-.5-.1-.5.2-4.3 1.9.5-4.6.1-.5-.4-.4-3.1-3.4 4.6-.9.5-.1.3-.5 2.3-4.1m0-2.3l-3.4 5.8L96 7.1l4.6 4.9-.8 6.7L106 16l6.2 2.7-.7-6.6 4.6-4.9-6.6-1.4L106 0zM58 2.3l2.3 4 .3.5.5.1 4.6.9-3.1 3.4-.4.5.1.5.5 4.6-4.3-1.9-.5-.2-.5.2-4.3 1.9.5-4.6.1-.5-.4-.4-3.1-3.4 4.6-.9.5-.1.3-.5L58 2.3M57.9 0l-3.4 5.8-6.6 1.3 4.6 4.9-.8 6.7 6.2-2.7 6.2 2.7-.7-6.6L68 7.2l-6.6-1.4L57.9 0z" id="stars-0"/></svg>