<svg width="50" height="77" viewBox="0 0 50 77" xmlns="http://www.w3.org/2000/svg" xmlns:xlink="http://www.w3.org/1999/xlink"><title>1</title><desc>Created using Figma</desc><use xlink:href="#a" transform="translate(32.66 49.23)" fill="#FFF"/><use xlink:href="#b" transform="translate(7 10)" fill="#FFF"/><use xlink:href="#c" transform="translate(10.41 49.23)" fill="#FFF"/><use xlink:href="#d" transform="translate(24.39 28.38)" fill="#FFF"/><use xlink:href="#e" transform="translate(10 75)" fill="#A3AF2B"/><defs><path id="a" d="M5.112.29A3.686 3.686 0 0 0 .29 2.25a3.686 3.686 0 0 0 3.388 5.113 3.688 3.688 0 0 0 3.397-2.25A3.686 3.686 0 0 0 5.112.288zm.254 4.102a1.83 1.83 0 0 1-3.378-.022 1.83 1.83 0 0 1 2.404-2.373 1.83 1.83 0 0 1 .974 2.395z"/><path id="b" d="M35.916 40.236a7.046 7.046 0 0 0-3.814-3.863 7.087 7.087 0 0 0-6.486.508l-6.03-14.721a.927.927 0 0 0-1.159-.525 1.63 1.63 0 0 1-2.131-1.231l-.118-.605-.001-.005-3.389-17.378L17.363 13.3v.002l2.957 7.034a.04.04 0 0 1 .001.004l5.255 12.61a.927.927 0 0 0 1.709-.719l-5.147-12.354 3.451-17.7A1.755 1.755 0 0 0 24.394.092 1.755 1.755 0 0 0 22.197 1.1l-3.976 9.458L14.245 1.1A1.755 1.755 0 0 0 12.049.092a1.755 1.755 0 0 0-1.195 2.086l3.451 17.699-6.706 15.955c-1.1-.08-2.212.1-3.258.54a7.046 7.046 0 0 0-3.814 3.864 7.046 7.046 0 0 0 .035 5.428 7.09 7.09 0 0 0 9.291 3.778 7.047 7.047 0 0 0 3.814-3.863 7.046 7.046 0 0 0-.035-5.428 7.103 7.103 0 0 0-1.306-2.04l4.823-11.774a.927.927 0 0 0-1.715-.703l-4.605 11.243a7.18 7.18 0 0 0-1.38-.66l5.817-13.842a3.484 3.484 0 0 0 2.895 1.192l5.959 14.548a7.064 7.064 0 0 0-1.308 2.036 7.1 7.1 0 0 0 3.779 9.291 7.088 7.088 0 0 0 9.291-3.778 7.045 7.045 0 0 0 .035-5.428zM23.653 2.42l-2.805 14.389-1.622-3.857L23.653 2.42zM10.577 38.99c.016.016.033.03.05.045a5.22 5.22 0 0 1 1.296 1.837 5.203 5.203 0 0 1 .025 4.01 5.204 5.204 0 0 1-2.816 2.853 5.236 5.236 0 0 1-6.863-2.791 5.203 5.203 0 0 1-.026-4.01 5.204 5.204 0 0 1 2.817-2.853 5.229 5.229 0 0 1 2.035-.414c.668 0 1.337.13 1.974.389a5.209 5.209 0 0 1 1.508.934zm23.596 5.954a5.236 5.236 0 0 1-6.863 2.79 5.244 5.244 0 0 1-2.79-6.862 5.247 5.247 0 0 1 4.833-3.203 5.21 5.21 0 0 1 2.03.412 5.204 5.204 0 0 1 2.816 2.853 5.204 5.204 0 0 1-.026 4.01z"/><path id="c" d="M7.076 2.25A3.686 3.686 0 0 0 2.253.29a3.657 3.657 0 0 0-1.98 2.005c-.37.91-.364 1.911.018 2.817a3.657 3.657 0 0 0 2.006 1.98 3.675 3.675 0 0 0 2.817-.018 3.658 3.658 0 0 0 1.98-2.006c.37-.91.364-1.911-.018-2.817zm-1.7 2.12a1.816 1.816 0 0 1-.982.996c-.45.19-.947.193-1.4.009A1.816 1.816 0 0 1 2 4.392a1.816 1.816 0 0 1-.009-1.399c.184-.452.533-.806.983-.996A1.831 1.831 0 0 1 5.376 4.37z"/><path id="d" d="M.927 1.854A.927.927 0 1 0 .927 0a.927.927 0 0 0 0 1.854z"/><path id="e" d="M0 0h30v2H0V0z"/></defs></svg>