<svg width="50" height="77" viewBox="0 0 50 77" xmlns="http://www.w3.org/2000/svg" xmlns:xlink="http://www.w3.org/1999/xlink"><title>2</title><desc>Created using Figma</desc><g transform="translate(33.71 44.38)"><use xlink:href="#a" fill="#FFF"/><use xlink:href="#a" fill="url(#b)"/></g><g transform="translate(6 10)"><use xlink:href="#c" fill="#FFF"/><use xlink:href="#c" fill="url(#d)"/></g><g transform="translate(17.88 20.16)"><use xlink:href="#e" fill="#FFF"/><use xlink:href="#e" fill="url(#f)"/></g><g transform="translate(13.92 24.06)"><use xlink:href="#g" fill="#FFF"/><use xlink:href="#g" fill="url(#h)"/></g><g transform="translate(16.29 30.31)"><use xlink:href="#i" fill="#FFF"/><use xlink:href="#i" fill="url(#j)"/></g><g transform="translate(16.29 34.22)"><use xlink:href="#i" fill="#FFF"/><use xlink:href="#i" fill="url(#k)"/></g><g transform="translate(16.29 38.12)"><use xlink:href="#i" fill="#FFF"/><use xlink:href="#i" fill="url(#l)"/></g><g transform="translate(20.25 30.31)"><use xlink:href="#m" fill="#FFF"/><use xlink:href="#m" fill="url(#n)"/></g><g transform="translate(20.25 34.22)"><use xlink:href="#m" fill="#FFF"/><use xlink:href="#m" fill="url(#o)"/></g><g transform="translate(20.25 38.12)"><use xlink:href="#m" fill="#FFF"/><use xlink:href="#m" fill="url(#p)"/></g><g transform="translate(13.92 45.94)"><use xlink:href="#q" fill="#FFF"/><use xlink:href="#q" fill="url(#r)"/></g><g transform="translate(9.17 13.12)"><use xlink:href="#s" fill="#FFF"/><use xlink:href="#s" fill="url(#t)"/></g><use xlink:href="#u" transform="translate(10 75)" fill="#A3AF2B"/><defs><linearGradient id="b" x2="1" gradientUnits="userSpaceOnUse" gradientTransform="matrix(0 3.90625 -3.95833 0 3.958 0)"><stop offset="0" stop-color="#FFF"/><stop offset="1" stop-color="#FFF" stop-opacity="0"/></linearGradient><linearGradient id="d" x2="1" gradientUnits="userSpaceOnUse" gradientTransform="matrix(0 50 -38 0 38 0)"><stop offset="0" stop-color="#FFF"/><stop offset="1" stop-color="#FFF" stop-opacity="0"/></linearGradient><linearGradient id="f" x2="1" gradientUnits="userSpaceOnUse" gradientTransform="matrix(0 1.5625 -14.25 0 14.25 0)"><stop offset="0" stop-color="#FFF"/><stop offset="1" stop-color="#FFF" stop-opacity="0"/></linearGradient><linearGradient id="h" x2="1" gradientUnits="userSpaceOnUse" gradientTransform="matrix(0 1.5625 -22.1667 0 22.167 0)"><stop offset="0" stop-color="#FFF"/><stop offset="1" stop-color="#FFF" stop-opacity="0"/></linearGradient><linearGradient id="j" x2="1" gradientUnits="userSpaceOnUse" gradientTransform="matrix(0 1.5625 -2.375 0 2.375 0)"><stop offset="0" stop-color="#FFF"/><stop offset="1" stop-color="#FFF" stop-opacity="0"/></linearGradient><linearGradient id="k" x2="1" gradientUnits="userSpaceOnUse" gradientTransform="matrix(0 1.5625 -2.375 0 2.375 0)"><stop offset="0" stop-color="#FFF"/><stop offset="1" stop-color="#FFF" stop-opacity="0"/></linearGradient><linearGradient id="l" x2="1" gradientUnits="userSpaceOnUse" gradientTransform="matrix(0 1.5625 -2.375 0 2.375 0)"><stop offset="0" stop-color="#FFF"/><stop offset="1" stop-color="#FFF" stop-opacity="0"/></linearGradient><linearGradient id="n" x2="1" gradientUnits="userSpaceOnUse" gradientTransform="matrix(0 1.5625 -13.4583 0 13.458 0)"><stop offset="0" stop-color="#FFF"/><stop offset="1" stop-color="#FFF" stop-opacity="0"/></linearGradient><linearGradient id="o" x2="1" gradientUnits="userSpaceOnUse" gradientTransform="matrix(0 1.5625 -13.4583 0 13.458 0)"><stop offset="0" stop-color="#FFF"/><stop offset="1" stop-color="#FFF" stop-opacity="0"/></linearGradient><linearGradient id="p" x2="1" gradientUnits="userSpaceOnUse" gradientTransform="matrix(0 1.5625 -13.4583 0 13.458 0)"><stop offset="0" stop-color="#FFF"/><stop offset="1" stop-color="#FFF" stop-opacity="0"/></linearGradient><linearGradient id="r" x2="1" gradientUnits="userSpaceOnUse" gradientTransform="matrix(0 1.5625 -8.70833 0 8.708 0)"><stop offset="0" stop-color="#FFF"/><stop offset="1" stop-color="#FFF" stop-opacity="0"/></linearGradient><linearGradient id="t" x2="1" gradientUnits="userSpaceOnUse" gradientTransform="matrix(0 40.625 -31.6666 0 31.667 0)"><stop offset="0" stop-color="#FFF"/><stop offset="1" stop-color="#FFF" stop-opacity="0"/></linearGradient><path id="a" d="M.792 0A.787.787 0 0 0 0 .781c0 .432.354.781.792.781.873 0 1.583.701 1.583 1.563 0 .431.354.781.792.781.437 0 .791-.35.791-.781C3.958 1.402 2.538 0 .792 0z"/><path id="c" d="M35.625 0H2.375C1.065 0 0 1.051 0 2.344V44.53c0 1.293 1.065 2.344 2.375 2.344H19.8a.77.77 0 0 0 .065.223.79.79 0 0 0 .577.441l2.055.367 1.814 1.855a.797.797 0 0 0 1.257-.155l1.582-2.731h2.682l1.567 2.729a.792.792 0 0 0 .688.396c.214 0 .42-.085.57-.239l1.814-1.855 2.055-.367a.79.79 0 0 0 .577-.44.772.772 0 0 0-.03-.713A2.342 2.342 0 0 0 38 44.531V2.344C38 1.05 36.934 0 35.625 0zM1.583 44.531V2.344c0-.431.355-.781.792-.781h33.25c.437 0 .792.35.792.78v42.188a.77.77 0 0 1-.156.461l-2.418-4.143c.626-.97.99-2.118.99-3.349 0-3.446-2.84-6.25-6.333-6.25-3.492 0-6.333 2.804-6.333 6.25 0 1.23.363 2.378.988 3.347l-2.629 4.465H2.375a.787.787 0 0 1-.792-.78zM28.5 42.188c-2.62 0-4.75-2.103-4.75-4.688 0-2.585 2.13-4.688 4.75-4.688s4.75 2.103 4.75 4.688c0 2.585-2.13 4.688-4.75 4.688zm-3.783 5.738L23.46 46.64a.795.795 0 0 0-.429-.226l-1.195-.213 2.403-4.081a6.35 6.35 0 0 0 2.973 1.5l-2.494 4.307zm3.338-2.614l.442-.764.438.764h-.88zm5.883 1.101a.795.795 0 0 0-.428.227l-1.256 1.283-2.47-4.302a6.354 6.354 0 0 0 2.975-1.5l2.38 4.078-1.2.214z"/><path id="e" d="M13.458 1.563c.438 0 .792-.35.792-.782A.787.787 0 0 0 13.458 0H.792A.787.787 0 0 0 0 .781c0 .432.354.781.792.781h12.666z"/><path id="g" d="M21.375 0H.792A.787.787 0 0 0 0 .781c0 .432.354.781.792.781h20.583c.437 0 .792-.35.792-.78A.787.787 0 0 0 21.375 0z"/><path id="i" d="M.792 1.563h.791c.438 0 .792-.35.792-.782A.787.787 0 0 0 1.583 0H.792A.787.787 0 0 0 0 .781c0 .432.354.781.792.781z"/><path id="m" d="M12.667 0H.792A.787.787 0 0 0 0 .781c0 .432.354.781.792.781h11.875c.437 0 .791-.35.791-.78A.786.786 0 0 0 12.667 0z"/><path id="q" d="M0 .781c0 .432.354.781.792.781h7.125c.437 0 .791-.35.791-.78A.787.787 0 0 0 7.917 0H.792A.787.787 0 0 0 0 .781z"/><path id="s" d="M15.833 39.063H4.67a3.942 3.942 0 0 0-3.087-3.047V4.609c1.549-.312 2.772-1.518 3.087-3.046h22.326c.316 1.528 1.539 2.734 3.087 3.046v23.516c0 .431.355.781.792.781.437 0 .792-.35.792-.781V3.906a.787.787 0 0 0-.792-.781c-1.31 0-2.375-1.051-2.375-2.344A.787.787 0 0 0 27.708 0H3.958a.787.787 0 0 0-.791.781c0 1.293-1.066 2.344-2.375 2.344A.787.787 0 0 0 0 3.906V36.72c0 .431.354.781.792.781 1.31 0 2.375 1.051 2.375 2.344 0 .431.354.781.791.781h11.875c.437 0 .792-.35.792-.781a.787.787 0 0 0-.792-.782z"/><path id="u" d="M0 0h30v2H0V0z"/></defs></svg>