<svg width="50" height="77" viewBox="0 0 50 77" xmlns="http://www.w3.org/2000/svg" xmlns:xlink="http://www.w3.org/1999/xlink"><title>3</title><desc>Created using Figma</desc><use xlink:href="#a" transform="translate(3 11)" fill="#FFF"/><use xlink:href="#b" transform="translate(27.14 17.05)" fill="#FFF"/><use xlink:href="#c" transform="translate(28.86 24.82)" fill="#FFF"/><use xlink:href="#d" transform="translate(27.14 32.6)" fill="#FFF"/><use xlink:href="#e" transform="translate(27.14 36.05)" fill="#FFF"/><use xlink:href="#f" transform="translate(39.21 36.05)" fill="#FFF"/><use xlink:href="#g" transform="translate(27.14 39.51)" fill="#FFF"/><use xlink:href="#e" transform="translate(27.14 42.97)" fill="#FFF"/><use xlink:href="#f" transform="translate(39.21 42.97)" fill="#FFF"/><use xlink:href="#g" transform="translate(27.14 46.42)" fill="#FFF"/><use xlink:href="#h" transform="translate(27.14 49.88)" fill="#FFF"/><use xlink:href="#f" transform="translate(39.21 49.88)" fill="#FFF"/><use xlink:href="#i" transform="translate(10 24)" fill="#FFF"/><use xlink:href="#j" transform="translate(10 75)" fill="#A3AF2B"/><defs><path id="a" d="M40.467 0H23.224A2.52 2.52 0 0 0 21.5.681 2.52 2.52 0 0 0 19.776 0H2.533A2.538 2.538 0 0 0 0 2.538v44.924C0 48.862 1.136 50 2.533 50h17.243a2.52 2.52 0 0 0 1.724-.681 2.52 2.52 0 0 0 1.724.681h17.243A2.538 2.538 0 0 0 43 47.462V2.538C43 1.138 41.864 0 40.467 0zM20.692 3.456h-.916a.81.81 0 0 0 0 1.62h.916v39.848h-.916a.81.81 0 0 0 0 1.62h.916v.918a.918.918 0 0 1-.916.918H2.533a.918.918 0 0 1-.916-.918V2.538c0-.506.41-.918.916-.918h17.243c.505 0 .916.412.916.918v.918zm20.691 44.006a.918.918 0 0 1-.916.918H23.224a.918.918 0 0 1-.916-.918v-.918h.916a.81.81 0 0 0 0-1.62h-.916V5.076h.916a.81.81 0 0 0 0-1.62h-.916v-.918c0-.506.411-.918.916-.918h17.243c.505 0 .916.412.916.918v44.924z"/><path id="b" d="M12.447 0H2.964a2.97 2.97 0 0 0 0 5.94h9.483a2.97 2.97 0 0 0 0-5.94zm0 4.32H2.964a1.35 1.35 0 0 1 0-2.7h9.483a1.35 1.35 0 0 1 0 2.7z"/><path id="c" d="M11.154 1.62a.81.81 0 0 0 0-1.62H.808a.81.81 0 0 0 0 1.62h10.346z"/><path id="d" d="M0 .81c0 .447.362.81.808.81h12.07a.81.81 0 0 0 0-1.62H.808A.81.81 0 0 0 0 .81z"/><path id="e" d="M.808 1.62H9.43a.81.81 0 0 0 0-1.62H.808a.81.81 0 0 0 0 1.62z"/><path id="f" d="M2.533 0H.808a.81.81 0 0 0 0 1.62h1.725a.81.81 0 0 0 0-1.62z"/><path id="g" d="M.808 1.62h12.07a.81.81 0 0 0 0-1.62H.808a.81.81 0 0 0 0 1.62z"/><path id="h" d="M9.43 0H.808a.81.81 0 0 0 0 1.62H9.43a.81.81 0 0 0 0-1.62z"/><path id="i" d="M3.946 15.91c0-1.158.933-2.105 2.04-2.105h.746c.366 0 .664-.29.664-.674a.662.662 0 0 0-.664-.673H2.658v-1.431h4.074c.366 0 .664-.29.664-.673a.662.662 0 0 0-.664-.674H2.658V8.25h4.074c.366 0 .664-.29.664-.674a.662.662 0 0 0-.664-.674H2.658v-1.43h4.074c.366 0 .664-.29.664-.674a.662.662 0 0 0-.664-.673H2.658V2.778H6.67c.735 0 1.33-.622 1.33-1.39C8 .623 7.405 0 6.671 0H1.315C.6 0 0 .67 0 1.434v22.303C0 24.432.57 25 1.235 25h1.53c.665 0 1.181-.568 1.181-1.263V15.91z"/><path id="j" d="M0 0h30v2H0V0z"/></defs></svg>