<svg width="50" height="77" viewBox="0 0 50 77" xmlns="http://www.w3.org/2000/svg" xmlns:xlink="http://www.w3.org/1999/xlink"><title>4</title><desc>Created using Figma</desc><use xlink:href="#a" transform="translate(6.12 21.74)" fill="#FFF"/><use xlink:href="#b" transform="translate(10.05 25.55)" fill="#FFF"/><use xlink:href="#c" transform="translate(10.05 34.16)" fill="#FFF"/><use xlink:href="#d" transform="translate(0 19)" fill="#FFF"/><use xlink:href="#e" transform="translate(35.51 26.82)" fill="#FFF"/><use xlink:href="#f" transform="translate(20.26 26.82)" fill="#FFF"/><use xlink:href="#g" transform="translate(20.26 29.81)" fill="#FFF"/><use xlink:href="#h" transform="translate(20.26 35.41)" fill="#FFF"/><use xlink:href="#i" transform="translate(20.26 38.4)" fill="#FFF"/><use xlink:href="#j" transform="translate(10 75)" fill="#A3AF2B"/><defs><path id="a" d="M36.208 0H1.548C.696 0 0 .69 0 1.537V21.61c0 .848.695 1.538 1.549 1.538h34.659c.854 0 1.549-.69 1.549-1.538V1.537C37.757.69 37.062 0 36.207 0zm.126 21.61a.125.125 0 0 1-.126.125H1.548a.125.125 0 0 1-.125-.125V1.537c0-.069.057-.125.126-.125h34.659c.07 0 .126.056.126.125V21.61z"/><path id="b" d="M6.75 0H1.66C.743 0 0 .739 0 1.647v3.61c0 .908.744 1.647 1.66 1.647h5.09c.914 0 1.659-.74 1.659-1.647v-3.61C8.409.739 7.664 0 6.749 0zm.236 5.257c0 .13-.106.234-.237.234H1.66a.236.236 0 0 1-.236-.234v-3.61c0-.13.106-.235.236-.235h5.09c.13 0 .237.106.237.235v3.61z"/><path id="c" d="M6.75 0H1.66C.743 0 0 .739 0 1.647v3.61c0 .908.744 1.647 1.66 1.647h5.09c.914 0 1.659-.74 1.659-1.647v-3.61C8.409.739 7.664 0 6.749 0zm.236 5.257c0 .13-.106.234-.237.234H1.66a.235.235 0 0 1-.236-.234v-3.61c0-.13.106-.235.236-.235h5.09c.13 0 .237.105.237.235v3.61z"/><path id="d" d="M49.288 27.207h-2.653V2.724C46.635 1.222 45.404 0 43.89 0H6.11C4.596 0 3.365 1.222 3.365 2.724v14.053c0 .39.318.706.711.706a.709.709 0 0 0 .712-.706V2.724c0-.723.593-1.312 1.322-1.312h37.78c.73 0 1.322.589 1.322 1.312v24.483H4.788v-6.79a.709.709 0 0 0-.712-.706.709.709 0 0 0-.711.706v6.79H.712a.709.709 0 0 0-.712.706v1.752c0 1.781 1.46 3.23 3.254 3.23h43.492c1.794 0 3.254-1.449 3.254-3.23v-1.752a.709.709 0 0 0-.712-.706zM7.085 31.482a1.587 1.587 0 0 1 1.415-.866h33c.618 0 1.154.353 1.415.866H7.085zm41.492-1.817a1.826 1.826 0 0 1-1.831 1.817h-2.324a3.008 3.008 0 0 0-2.922-2.278h-33a3.008 3.008 0 0 0-2.922 2.278H3.254a1.826 1.826 0 0 1-1.83-1.817V28.62h47.153v1.046z"/><path id="e" d="M3.582 0H.712A.709.709 0 0 0 0 .706c0 .39.319.706.712.706h2.87a.709.709 0 0 0 .711-.706A.709.709 0 0 0 3.582 0z"/><path id="f" d="M12.37 0H.712A.709.709 0 0 0 0 .706c0 .39.319.706.712.706H12.37a.709.709 0 0 0 .711-.706A.709.709 0 0 0 12.37 0z"/><path id="g" d="M18.833 0H.712A.709.709 0 0 0 0 .706c0 .39.319.706.712.706h18.121a.709.709 0 0 0 .712-.706.709.709 0 0 0-.712-.706z"/><path id="h" d="M18.833 0H.712A.709.709 0 0 0 0 .706c0 .39.319.706.712.706h18.121a.709.709 0 0 0 .712-.706.709.709 0 0 0-.712-.706z"/><path id="i" d="M18.833 0H.712A.709.709 0 0 0 0 .706c0 .39.319.706.712.706h18.121a.709.709 0 0 0 .712-.706.709.709 0 0 0-.712-.706z"/><path id="j" d="M0 0h30v2H0V0z"/></defs></svg>