<svg xmlns="http://www.w3.org/2000/svg" width="121.031" height="96.031" viewBox="0 0 121.031 96.031">
  <defs>
    <style>
      .cls-1 {
        fill: #fff;
        fill-rule: evenodd;
      }
    </style>
  </defs>
  <path id="new_vector_shape_done" class="cls-1" d="M190.354,91.862h-30.32c-7.127,0-14.059.271-19.324-1.661-9.291-3.41-15.451-9.07-20.324-16.943-4.17-6.737-7.382-18.873-4-29.235a46.9,46.9,0,0,1,7-13.289c6.636-8.9,23.8-17.225,39.982-12.292a39.3,39.3,0,0,1,24.323,21.595C192.433,50.762,190.4,76.489,190.354,91.862ZM149.039,33.724c-2.083,1.406-5.234,1.365-7.33,2.658a23.019,23.019,0,0,0-9.329,11.96,19.524,19.524,0,0,0,0,9.966c2.387,8.53,5.942,12.438,13.994,15.282,2.532,0.894,7.916,1.738,11.328.664,9.845-3.1,19.3-14.277,13.994-27.906C168.485,38.106,160.925,33.561,149.039,33.724Zm45.313,58.8c-0.118-7.494-1.208-18.189,1.333-23.588,4.308-9.152,20.714-13.692,27.987-3.986A24.279,24.279,0,0,1,227,70.932c1.267,3.567.5,8.175-.666,10.963C221.186,94.215,211.028,92.762,194.352,92.527Zm-9,3.322h4.665c0.468,1.364.358,3.769,0.333,5.648-0.888.952-.905,1.822-2.332,2.325-1.37,1.122-3.121.4-4.665,0-0.722-1.044-2.607-3.072-1.333-4.983C182.662,96.8,183.829,96.937,185.356,95.849Zm23.656,6.976H205.68l-0.333-.664c-1.684-1.941-.036-4.1,2.666-3.987a5.61,5.61,0,0,1,.333-1.993h0.666v6.644Zm-93.957-5.98c4.454-.132,9.85-0.589,11.661,1.993,1.613,1.87.869,5.01,0,6.977a15.87,15.87,0,0,1-3,1.661c-1.617.45-3.821-.412-5,0.332-0.618.934-.376,3.484-0.333,4.983h-3.332V96.845Zm14.66,0h11.661a7.134,7.134,0,0,1,.333,2.326c-1.965.664-5.469,0.358-8,.332a6.738,6.738,0,0,0-.666,3.654c1.878,0.636,5.229.359,7.663,0.333a7.136,7.136,0,0,1,.333,2.326c-1.879.635-5.229,0.358-7.663,0.332a10.9,10.9,0,0,0-.333,3.322c1.882,0.986,5.76.7,8.662,0.664v2.658H129.715V96.845Zm23.323,12.625h-6c-0.957,2.441-.921,3.494-4.664,3.322,0.473-4.173,3.135-8.706,4.664-12.292,0.43-1.008.414-3.2,1.333-3.655h3.332l6,15.947h-3.665V112.46H153.7ZM159.7,96.845c4.4-.147,10.769-0.8,12,2.326,1.689,1.993.146,5.044-1.333,5.98a17.139,17.139,0,0,1,2.332,7.641h-3.331v-0.664c-2.345-4.126,1.94-5.592-6.331-5.316v5.98H159.7V96.845Zm15.327,0h3.331c-0.035,4.187-.381,9.328.334,12.957h7.33v0.665a3.59,3.59,0,0,1,.333,1.993c-2.84.951-7.869,0.359-11.328,0.332V96.845Zm19.991,0a2.8,2.8,0,0,1,1.665,1.993c-1.415,1.177-.073,3.331,0,3.654a2.246,2.246,0,0,1-1.332.332v-0.332h-0.333c-0.008-1.319-.7-4.134-0.667-4.318A3.908,3.908,0,0,0,195.019,96.845Zm2.665,1.329c1.072,0.126,1.417-.243,2,0.664-1.7,1.225-.708,3.113-2,3.986v-0.332C197.044,101.582,197.335,99.108,197.684,98.175Zm3.665,0h1.666a4.991,4.991,0,0,1,.666,1.329,16.111,16.111,0,0,1,.333,2.99,10.711,10.711,0,0,1-3.331.332,3.625,3.625,0,0,0-.667-1v-0.665a16.953,16.953,0,0,1,3-1.328V99.5h-0.333c-0.485-.845.072-0.375-1-0.664-0.522.607-.294,0.464-1.333,0.664V98.839A3.652,3.652,0,0,0,201.349,98.175Zm10,2.657v1a1.142,1.142,0,0,1,.667.332l2-.664v0.664a4.407,4.407,0,0,1-2.666.664c-0.624-.973-1.094-1.163-1.332-2.657,1-1.242.7-1.9,3-1.994,0.686,1.026,1.153.972,1.333,2.657H214.01v0.332A13.206,13.206,0,0,0,211.344,100.832Zm0-.664h1.666q0.167-.333.334-0.665a2.036,2.036,0,0,1-.667-0.664,1.138,1.138,0,0,0-.666.332h-0.667v1Zm-5.33-1a11.92,11.92,0,0,0-.334,2.326,3.548,3.548,0,0,0,1.666.664,3.826,3.826,0,0,0,.667-2.325,1.2,1.2,0,0,1-.334-0.664h-1.665Zm-86.961.332c-0.64,1.195-.706,2.924-0.666,4.984a16.513,16.513,0,0,0,4.664.332c0.837-1.245,1.325-1.351,1.333-3.655a1.2,1.2,0,0,1-.333-0.664A9.728,9.728,0,0,0,119.053,99.5Zm43.98,0v4.651a27.321,27.321,0,0,0,5.331-.332l0.333-1a1.932,1.932,0,0,0-1-2.989C166.817,99.254,164.468,99.461,163.033,99.5Zm38.316,1.329c-0.133.753-.306,0.36,0,1a1.7,1.7,0,0,0,1,.332,5.023,5.023,0,0,0,.666-1.329h-1.666Zm-53.309,5.98h3.665c-0.05-1.715-.833-4.649-2-5.315v0.332A12.174,12.174,0,0,0,148.04,106.812Zm52.309,5.98h-1v-2.325h-0.333c-0.641.65-1.28,0.394-3,.332v1a1.133,1.133,0,0,1,.666.332l2-.665v0.665a5.113,5.113,0,0,1-3,.664c-0.353-1.139-.77-1.276-1-2.658,1-1.242.7-1.9,3-1.993a5.3,5.3,0,0,0,1.666,1.661,11.7,11.7,0,0,1,.333-3.654h0.666v6.644Zm25.322-6.644c0.847,0.483.376-.073,0.667,1C225.247,106.642,225.682,107.077,225.671,106.148Zm-14.66.664a2.8,2.8,0,0,1,1.666,1.993c-1.525,1.283-.187,2.907.333,3.987h-1.666V112.46h-0.333c-0.008-1.319-.7-4.135-0.666-4.319A3.892,3.892,0,0,0,211.011,106.812Zm-8.329,3.987v1a1.136,1.136,0,0,1,.666.332l2-.665v0.665a5.113,5.113,0,0,1-3,.664c-0.353-1.139-.77-1.276-1-2.658,1-1.242.7-1.9,3-1.993a4.889,4.889,0,0,0,2,1.993c0.261-1.766.937-2.036,3-1.993a3.521,3.521,0,0,1,.667,1.661h-0.667c-0.546-.741-0.569-1-1.332-0.665-0.823.431-.227-0.142-0.667,0.665-0.466.744-.181,1.088,0,1.994a1.136,1.136,0,0,1,.667.332c1.01-.327,1-0.654,2-1v1a5.118,5.118,0,0,1-3,.664,5.44,5.44,0,0,0-1.333-2.325C205.04,111.117,204.4,110.861,202.682,110.8Zm11.661,1.993h-1a15.71,15.71,0,0,1,.333-4.651,7.316,7.316,0,0,0,2,0v0.664C214.365,109.641,214.261,110.538,214.343,112.792Zm10.329,0h-1v-3.655a4.754,4.754,0,0,0-1.333-.332,7.672,7.672,0,0,0-.666,3.987h-1v-1.661H220.34c-0.76,1.288-1.149,1.694-3.332,1.661-0.387-1.233-.84-1.357-1-2.99,1.026-1.007.9-1.566,3-1.661a7.833,7.833,0,0,0,1.666,1.661c0.165-2.05,1.188-1.807,3.331-1.661l0.334,1C224.818,109.852,224.709,111.565,224.672,112.792Zm1.666,0h-1a15.777,15.777,0,0,1,.333-4.651h0.667v4.651Zm2.332-4.651h2a3.511,3.511,0,0,1,.666,1.661H231c-0.614-.644-1-0.95-1.666-0.665-0.822.431-.227-0.142-0.666,0.665-0.467.744-.182,1.088,0,1.994a1.133,1.133,0,0,1,.666.332c1.128-.371,1-0.734,2.333-1V111.8a4.528,4.528,0,0,1-3.332,1,6.87,6.87,0,0,1-.667-1.661,2.243,2.243,0,0,1-.333-1.329A8.745,8.745,0,0,0,228.67,108.141Zm4.664,0.664v1A4.612,4.612,0,0,1,236,111.131c-0.465,1.627-1.153,1.761-3.332,1.661a3.63,3.63,0,0,0-.666-1l0.333-.665a3.907,3.907,0,0,0,2,1V111.8h0.333v-1H233a5.981,5.981,0,0,1-1-1.662,3.71,3.71,0,0,1,2.665-1,3.863,3.863,0,0,0,1,.664v0.665h-1C234.145,108.863,234.373,109.006,233.334,108.805Zm-37.316,1.329h1.666l0.333-.664a2.035,2.035,0,0,1-.666-0.665,1.154,1.154,0,0,0-.667.332h-0.666v1Zm6.664,0h1.666l0.333-.664a2.038,2.038,0,0,1-.667-0.665,1.154,1.154,0,0,0-.666.332h-0.666v1Zm15.326-1.329a2.791,2.791,0,0,0-.666,1c-0.467.744-.182,1.088,0,1.994h1.666v-0.665a2.87,2.87,0,0,0,.333-1.661A5.052,5.052,0,0,0,218.008,108.805Z" transform="translate(-114.969 -16.969)"/>
</svg>
