<svg width="20" height="20" viewBox="0 0 20 20" xmlns="http://www.w3.org/2000/svg" xmlns:xlink="http://www.w3.org/1999/xlink"><title>4328F163-545F-4F70-A018-469041B755D7</title><defs><path id="b" d="M0 0h1440v70H0z"/><filter x="-2.1%" y="-42.9%" width="104.2%" height="185.7%" filterUnits="objectBoundingBox" id="a"><feOffset in="SourceAlpha" result="shadowOffsetOuter1"/><feGaussianBlur stdDeviation="10" in="shadowOffsetOuter1" result="shadowBlurOuter1"/><feComposite in="shadowBlurOuter1" in2="SourceAlpha" operator="out" result="shadowBlurOuter1"/><feColorMatrix values="0 0 0 0 0 0 0 0 0 0 0 0 0 0 0 0 0 0 0.5 0" in="shadowBlurOuter1"/></filter><path d="M6.55 10zm10.43-1.61zm-3.49-.76c-.18-2.79-1.31-5.51-3.43-7.63a12.188 12.188 0 0 0-3.55 7.63c1.28.68 2.46 1.56 3.49 2.63 1.03-1.06 2.21-1.94 3.49-2.63zm-6.5 2.65c-.14-.1-.3-.19-.45-.29.15.11.31.19.45.29zm6.42-.25c-.13.09-.27.16-.4.26.13-.1.27-.17.4-.26zM10 13.45C7.85 10.17 4.18 8 0 8c0 5.32 3.36 9.82 8.03 11.49.63.23 1.29.4 1.97.51.68-.12 1.33-.29 1.97-.51C16.64 17.82 20 13.32 20 8c-4.18 0-7.85 2.17-10 5.45z" id="c"/></defs><g fill="none" fill-rule="evenodd"><g opacity=".101" transform="translate(-465 -15)"><use fill="#000" filter="url(#a)" xlink:href="#b"/><use fill-opacity=".75" fill="#FFF" xlink:href="#b"/></g><path fill="#FFF" d="M-465-15H975v70H-465z"/><path fill="#FFF" d="M-43-15H62v70H-43z"/><path d="M-2-2h24v24H-2V-2zm13.97 21.49c-.63.23-1.29.4-1.97.51.68-.12 1.33-.29 1.97-.51zM10 20z"/><mask id="d" fill="#fff"><use xlink:href="#c"/></mask><use fill="#607D8B" fill-rule="nonzero" xlink:href="#c"/><g mask="url(#d)"><path fill="#44AF69" d="M0-3h24v24H0z"/></g></g></svg>