<svg width="24" height="24" viewBox="0 0 24 24" xmlns="http://www.w3.org/2000/svg" xmlns:xlink="http://www.w3.org/1999/xlink"><title>ic/add_shopping_cartIcons</title><defs><path d="M10 8h2V5h3V3h-3V0h-2v3H7v2h3v3zm-4 9c-1.1 0-1.99.9-1.99 2S4.9 21 6 21s2-.9 2-2-.9-2-2-2zm10 0c-1.1 0-1.99.9-1.99 2s.89 2 1.99 2 2-.9 2-2-.9-2-2-2zm-9.83-3.25l.03-.12.9-1.63h7.45c.75 0 1.41-.41 1.75-1.03l3.86-7.01L18.42 3h-.01l-1.1 2-2.76 5H7.53l-.13-.27L5.16 5l-.95-2-.94-2H0v2h2l3.6 7.59-1.35 2.45c-.16.28-.25.61-.25.96 0 1.1.9 2 2 2h12v-2H6.42c-.13 0-.25-.11-.25-.25z" id="a"/></defs><g transform="translate(1 1)" fill="none" fill-rule="evenodd"><mask id="b" fill="#fff"><use xlink:href="#a"/></mask><use fill="#FFF" fill-rule="nonzero" xlink:href="#a"/><g mask="url(#b)"><path fill="#fff" d="M-1-1h24v24H-1z"/></g></g></svg>