<svg width="24" height="24" viewBox="0 0 24 24" xmlns="http://www.w3.org/2000/svg" xmlns:xlink="http://www.w3.org/1999/xlink"><title>ic/favorite_borderIcons</title><defs><path d="M14.5 0c-1.74 0-3.41.81-4.5 2.09C8.91.81 7.24 0 5.5 0 2.42 0 0 2.42 0 5.5c0 3.78 3.4 6.86 8.55 11.54L10 18.35l1.45-1.32C16.6 12.36 20 9.28 20 5.5 20 2.42 17.58 0 14.5 0zm-4.4 15.55l-.1.1-.1-.1C5.14 11.24 2 8.39 2 5.5 2 3.5 3.5 2 5.5 2c1.54 0 3.04.99 3.57 2.36h1.87C11.46 2.99 12.96 2 14.5 2c2 0 3.5 1.5 3.5 3.5 0 2.89-3.14 5.74-7.9 10.05z" id="a"/></defs><g fill="none" fill-rule="evenodd"><path d="M0 0h24v24H0z"/><g transform="translate(2 3)"><mask id="b" fill="#fff"><use xlink:href="#a"/></mask><use fill="#757575" fill-rule="nonzero" xlink:href="#a"/><g mask="url(#b)"><path fill="#525252" d="M-1-2h24v24H-1z"/></g></g></g></svg>