<svg width="24" height="24" viewBox="0 0 24 24" xmlns="http://www.w3.org/2000/svg" xmlns:xlink="http://www.w3.org/1999/xlink"><title>ic/HairIcons</title><defs><path d="M17.485 14.252a2.295 2.295 0 0 1-.34-1.907c.07-.268.25-.513.502-.69 2.61-1.831 2.32-5.733 2.286-6.105-.004-1.728-.5-3.099-1.474-4.072C16.974-.005 14.933.005 14.844 0c-2.62 0-3.466 1.757-3.715 2.55-1.545-.868-2.956-.84-3.125-.834h-.726c-.098-.005-2.45-.113-4.477 1.824C.942 5.318 0 8.18 0 12.048c0 .126.001.252.003.377v.057c0 .085.003.17.004.254a21.262 21.262 0 0 0 .013.483c.004.139.01.277.017.417l.006.1c.008.147.019.296.03.445l.007.09a14.642 14.642 0 0 0 .104.923c.008.054.014.107.023.16.016.104.034.207.053.31l.04.224.05.226a8.4 8.4 0 0 0 .067.295c.011.045.025.09.037.136a8.926 8.926 0 0 0 .118.416c.299.955.746 1.839 1.416 2.6.113.128.234.254.36.376.333.319.691.604 1.057.872v2.762c0 .237.19.429.424.429a.426.426 0 0 0 .424-.429v-2.17l.144.098.394.268c.16.11.317.227.474.343.679.508 1.381 1.033 2.369 1.033.988 0 1.69-.525 2.37-1.033.156-.116.312-.234.473-.343l.407-.276.003-.003.152-.102v2.185c0 .237.19.429.424.429a.426.426 0 0 0 .424-.429v-2.779c.358-.263.707-.542 1.033-.855a6.42 6.42 0 0 0 .353-.368c.042-.048.08-.098.12-.147.067-.08.134-.159.195-.241.043-.058.083-.117.124-.176.038-.054.079-.108.115-.163.084.479.162.983.234 1.526.375 2.805 2.123 3.473 3.132 3.621a.568.568 0 0 0 .605-.352.569.569 0 0 0-.183-.671c-.195-.145-.257-.425-.184-.832.075-.414.284-.836.605-1.217 1.122-1.335 1.087-2.268 1.049-2.527-.015-1.536-.876-3.096-1.6-4.138zm-3.1-.684a18.92 18.92 0 0 1-.025.441l-.011.161c-.016.19-.035.38-.057.568l-.015.128c-.024.192-.052.383-.085.572l-.023.125a9.713 9.713 0 0 1-.12.573l-.022.082a9.04 9.04 0 0 1-.138.483c-.016.05-.03.1-.048.15-.056.169-.12.334-.187.497a6.486 6.486 0 0 1-.324.67 5.633 5.633 0 0 1-.41.632 3.29 3.29 0 0 1-.138.174c-.044.055-.087.11-.134.163a5.664 5.664 0 0 1-.313.329c-.38.364-.809.688-1.246.996-.228.16-.458.319-.69.474l-.398.27c-.17.118-.336.241-.502.365-.595.445-1.157.865-1.865.865s-1.27-.42-1.865-.865a14.525 14.525 0 0 0-.502-.364l-.205-.14-.194-.13c-.227-.155-.453-.31-.68-.468-.44-.31-.873-.636-1.255-1.003a5.333 5.333 0 0 1-.329-.346c-.032-.036-.06-.075-.092-.112a5.693 5.693 0 0 1-.2-.254c-.035-.046-.066-.094-.098-.141-.055-.08-.11-.16-.16-.244-.034-.053-.063-.107-.094-.161a5.955 5.955 0 0 1-.49-1.066 9.405 9.405 0 0 1-.136-.42 8.33 8.33 0 0 1-.082-.294l-.031-.123a10.306 10.306 0 0 1-.08-.353l-.01-.052C.923 14.714.864 13.61.85 12.516c.24-.515 1.647-3.347 3.637-3.509.643.683 3.369 3.422 5.69 3.422.013 0 .026 0 .038-.002.028-.002 2.734-.23 4.176 1.022l-.006.119z" id="a"/></defs><g transform="translate(2)" fill="none" fill-rule="evenodd"><mask id="b" fill="#fff"><use xlink:href="#a"/></mask><use fill="#FFF" fill-rule="nonzero" xlink:href="#a"/><g mask="url(#b)"><path fill="#44AF69" d="M-2 0h24v24H-2z"/></g></g></svg>