<svg width="20" height="10" viewBox="0 0 20 10" xmlns="http://www.w3.org/2000/svg" xmlns:xlink="http://www.w3.org/1999/xlink"><title>60DC1CF5-888A-46C7-8BBB-E57EF1C0590B</title><defs><path d="M9.708 3.333A4.992 4.992 0 0 0 5 0C2.242 0 0 2.242 0 5s2.242 5 5 5a4.992 4.992 0 0 0 4.708-3.333h3.625V10h3.334V6.667h1.666V3.333H9.708zM5 6.667c-.917 0-1.667-.75-1.667-1.667S4.083 3.333 5 3.333 6.667 4.083 6.667 5 5.917 6.667 5 6.667z" id="a"/></defs><g fill="none" fill-rule="evenodd"><path fill="#2C2C2C" d="M-1303-19H137v48h-1440z"/><path d="M0-5h20v20H0z"/><g transform="translate(.833)"><mask id="b" fill="#fff"><use xlink:href="#a"/></mask><use fill="#757575" fill-rule="nonzero" xlink:href="#a"/><g mask="url(#b)"><path fill="#44AF69" d="M-.833-4.167h20v20h-20z"/></g></g></g></svg>