<svg width="24" height="24" viewBox="0 0 24 24" xmlns="http://www.w3.org/2000/svg" xmlns:xlink="http://www.w3.org/1999/xlink"><title>ic/phone_iphoneIcons</title><defs><path d="M10.5 0h-8A2.5 2.5 0 0 0 0 2.5v17A2.5 2.5 0 0 0 2.5 22h8a2.5 2.5 0 0 0 2.5-2.5v-17A2.5 2.5 0 0 0 10.5 0zm-4 21c-.83 0-1.5-.67-1.5-1.5S5.67 18 6.5 18s1.5.67 1.5 1.5S7.33 21 6.5 21zm4.5-4H2V3h9v14z" id="a"/></defs><g transform="translate(5 1)" fill="none" fill-rule="evenodd"><mask id="b" fill="#fff"><use xlink:href="#a"/></mask><use fill="#757575" fill-rule="nonzero" xlink:href="#a"/><g mask="url(#b)"><path fill="#44AF69" d="M-5-1h24v24H-5z"/></g></g></svg>