<svg width="50" height="77" viewBox="0 0 50 77" version="1.1" xmlns="http://www.w3.org/2000/svg" xmlns:xlink="http://www.w3.org/1999/xlink">
<title>1</title>
<desc>Created using Figma</desc>
<g id="Canvas" transform="translate(-3193 -2191)">
<g id="1">
<g id="scissors">
<g id="Group">
<g id="Group">
<g id="Vector">
<use xlink:href="#path0_fill" transform="translate(3225.66 2240.23)" fill="#FFFFFF"/>
</g>
</g>
</g>
<g id="Group">
<g id="Group">
<g id="Vector">
<use xlink:href="#path1_fill" transform="translate(3200 2201)" fill="#FFFFFF"/>
</g>
</g>
</g>
<g id="Group">
<g id="Group">
<g id="Vector">
<use xlink:href="#path2_fill" transform="translate(3203.41 2240.23)" fill="#FFFFFF"/>
</g>
</g>
</g>
<g id="Group">
<g id="Group">
<g id="Vector">
<use xlink:href="#path3_fill" transform="translate(3217.39 2219.38)" fill="#FFFFFF"/>
</g>
</g>
</g>
</g>
<g id="Rectangle 9">
<use xlink:href="#path4_fill" transform="translate(3203 2266)" fill="#A3AF2B"/>
</g>
</g>
</g>
<defs>
<path id="path0_fill" d="M 5.11241 0.289336C 3.24208 -0.499441 1.07839 0.380257 0.289421 2.25078C -0.499551 4.1213 0.380338 6.2849 2.25086 7.07367C 2.71659 7.27006 3.20028 7.36313 3.67675 7.36313C 5.11339 7.36313 6.48137 6.51703 7.07395 5.11223C 7.86263 3.2419 6.98284 1.07831 5.11241 0.289336ZM 5.36583 4.39191C 4.97413 5.32063 3.8998 5.75726 2.97128 5.36575C 2.52147 5.1761 2.17244 4.82248 1.98846 4.37023C 1.80447 3.91789 1.80769 3.4211 1.99734 2.97129C 2.29158 2.27383 2.97069 1.8538 3.68408 1.8538C 3.9206 1.8538 4.16084 1.89999 4.39209 1.99755C 5.32062 2.38896 5.75744 3.46329 5.36583 4.39191Z"/>
<path id="path1_fill" d="M 35.9157 40.2361C 35.202 38.4813 33.8477 37.1094 32.1022 36.3732C 29.9072 35.4475 27.5036 35.7164 25.6158 36.8812L 19.5861 22.16C 19.3999 21.7055 18.8914 21.4752 18.4273 21.6348C 17.9807 21.7884 17.4901 21.7409 17.0813 21.5047C 16.6724 21.2687 16.3862 20.8674 16.2957 20.404L 16.1778 19.7989C 16.1775 19.7974 16.1772 19.7959 16.1769 19.7943L 12.788 2.41619L 17.3626 13.3003C 17.3627 13.3008 17.363 13.3011 17.3632 13.3016L 20.3197 20.3358C 20.3202 20.337 20.3207 20.3382 20.3211 20.3395L 25.5756 32.9496C 25.7739 33.4213 26.3171 33.6432 26.7892 33.4449C 27.261 33.2465 27.4828 32.7033 27.2845 32.2313L 22.1377 19.877L 25.5893 2.17741C 25.7931 1.25778 25.2928 0.382769 24.394 0.0921419C 23.489 -0.200634 22.5651 0.223393 22.1966 1.10006L 18.221 10.5585L 14.2455 1.10006C 13.8771 0.223491 12.953 -0.200829 12.0481 0.0921419C 11.1492 0.382769 10.649 1.25797 10.8529 2.17761L 14.3043 19.8769L 7.59828 35.8318C 6.49759 35.7525 5.38596 35.9316 4.33976 36.3729C 2.59424 37.1092 1.24002 38.4811 0.526347 40.2359C -0.187332 41.9907 -0.174831 43.9184 0.561308 45.6638C 1.22088 47.2277 2.42031 48.5042 3.93858 49.2582C 4.93264 49.752 6.0137 50.0002 7.09642 50C 8.03208 50 8.96929 49.8146 9.85231 49.4422C 11.5977 48.7059 12.952 47.334 13.6657 45.5792C 14.3794 43.8244 14.3669 41.8966 13.6308 40.1512C 13.3096 39.3899 12.8674 38.7031 12.3254 38.1112L 17.1481 26.337C 17.3421 25.8634 17.1154 25.3221 16.6416 25.128C 16.1678 24.934 15.6267 25.1609 15.4326 25.6345L 10.8278 36.8769C 10.4927 36.6706 10.1394 36.489 9.76774 36.3379C 9.66158 36.2947 9.55465 36.2545 9.44732 36.2165L 15.2651 22.3748C 15.5161 22.664 15.8153 22.9137 16.1544 23.1094C 16.7677 23.4636 17.467 23.6193 18.1595 23.5667L 24.1186 38.1154C 23.5831 38.6986 23.1364 39.3808 22.8114 40.151C 21.2917 43.7541 22.9866 47.9221 26.59 49.442C 27.4732 49.8145 28.4102 50 29.3458 50C 30.4285 50 31.5095 49.7518 32.5037 49.258C 34.022 48.5038 35.2213 47.2273 35.881 45.6636C 36.6171 43.9187 36.6294 41.9909 35.9157 40.2361ZM 23.6534 2.41941L 20.8475 16.8077L 19.2263 12.9506L 23.6534 2.41941ZM 10.5774 38.9904C 10.5931 39.0062 10.6099 39.0208 10.6268 39.0355C 11.1803 39.5397 11.6231 40.1616 11.9226 40.8721C 12.4665 42.1614 12.4757 43.5853 11.9484 44.8814C 11.4214 46.1776 10.421 47.1908 9.13179 47.7347C 7.72465 48.3284 6.13245 48.2787 4.76291 47.5984C 3.6419 47.0417 2.75635 46.0989 2.26914 44.9438C 1.72528 43.6545 1.7161 42.2306 2.24335 40.9345C 2.77041 39.6384 3.77081 38.6251 5.05998 38.0813C 5.71536 37.8049 6.40501 37.6667 7.09545 37.6667C 7.76342 37.6667 8.43198 37.7962 9.06939 38.0555C 9.63024 38.2834 10.1378 38.6002 10.5774 38.9904ZM 34.1728 44.9437C 33.6857 46.0988 32.8 47.0416 31.6791 47.5983C 30.3097 48.2785 28.7174 48.328 27.3103 47.7346C 24.6489 46.6121 23.3969 43.5334 24.5195 40.8721C 25.3626 38.8732 27.3089 37.6694 29.3533 37.6694C 30.031 37.6694 30.7196 37.8018 31.3821 38.0813C 32.6714 38.6251 33.6717 39.6385 34.1988 40.9345C 34.7259 42.2306 34.7167 43.6544 34.1728 44.9437Z"/>
<path id="path2_fill" d="M 7.07574 2.25078C 6.28686 0.380257 4.12317 -0.499441 2.25284 0.289336C 1.34668 0.671565 0.643746 1.38359 0.273235 2.29463C -0.0972762 3.20557 -0.0907327 4.20627 0.291399 5.11233C 0.673629 6.01849 1.38565 6.72143 2.29669 7.09194C 2.74464 7.27426 3.21437 7.36518 3.68391 7.36518C 4.16907 7.36518 4.65404 7.26791 5.11429 7.07377C 6.02036 6.69154 6.72339 5.97952 7.0939 5.06848C 7.46431 4.15754 7.45777 3.15694 7.07574 2.25078ZM 5.3767 4.37004C 5.19281 4.82229 4.84368 5.1759 4.39378 5.36575C 3.94397 5.5554 3.44719 5.55882 2.99484 5.37473C 2.54259 5.19084 2.18897 4.84172 1.99932 4.39191C 1.80967 3.9421 1.80645 3.44532 1.99034 2.99298C 2.17423 2.54073 2.52335 2.18711 2.97326 1.99726C 3.20451 1.8998 3.44455 1.85351 3.68108 1.85351C 4.39427 1.85351 5.07347 2.27363 5.36771 2.971C 5.55736 3.42101 5.56059 3.91779 5.3767 4.37004Z"/>
<path id="path3_fill" d="M 0.926864 1.85373C 1.43876 1.85373 1.85373 1.43876 1.85373 0.926864C 1.85373 0.414971 1.43876 0 0.926864 0C 0.414972 0 0 0.414971 0 0.926864C 0 1.43876 0.414972 1.85373 0.926864 1.85373Z"/>
<path id="path4_fill" d="M 0 0L 30 0L 30 2L 0 2L 0 0Z"/>
</defs>
</svg>
