<svg width="50" height="77" viewBox="0 0 50 77" version="1.1" xmlns="http://www.w3.org/2000/svg" xmlns:xlink="http://www.w3.org/1999/xlink">
<title>2</title>
<desc>Created using Figma</desc>
<g id="Canvas" transform="translate(-3313 -2191)">
<g id="2">
<g id="2">
<g id="certificate">
<g id="Group">
<g id="Vector">
<use xlink:href="#path0_fill" transform="translate(3346.71 2235.38)" fill="#FFFFFF"/>
<use xlink:href="#path0_fill" transform="translate(3346.71 2235.38)" fill="url(#paint1_linear)"/>
</g>
<g id="Vector">
<use xlink:href="#path1_fill" transform="translate(3319 2201)" fill="#FFFFFF"/>
<use xlink:href="#path1_fill" transform="translate(3319 2201)" fill="url(#paint3_linear)"/>
</g>
<g id="Vector">
<use xlink:href="#path2_fill" transform="translate(3330.88 2211.16)" fill="#FFFFFF"/>
<use xlink:href="#path2_fill" transform="translate(3330.88 2211.16)" fill="url(#paint5_linear)"/>
</g>
<g id="Vector">
<use xlink:href="#path3_fill" transform="translate(3326.92 2215.06)" fill="#FFFFFF"/>
<use xlink:href="#path3_fill" transform="translate(3326.92 2215.06)" fill="url(#paint7_linear)"/>
</g>
<g id="Vector">
<use xlink:href="#path4_fill" transform="translate(3329.29 2221.31)" fill="#FFFFFF"/>
<use xlink:href="#path4_fill" transform="translate(3329.29 2221.31)" fill="url(#paint9_linear)"/>
</g>
<g id="Vector">
<use xlink:href="#path4_fill" transform="translate(3329.29 2225.22)" fill="#FFFFFF"/>
<use xlink:href="#path4_fill" transform="translate(3329.29 2225.22)" fill="url(#paint11_linear)"/>
</g>
<g id="Vector">
<use xlink:href="#path4_fill" transform="translate(3329.29 2229.12)" fill="#FFFFFF"/>
<use xlink:href="#path4_fill" transform="translate(3329.29 2229.12)" fill="url(#paint13_linear)"/>
</g>
<g id="Vector">
<use xlink:href="#path5_fill" transform="translate(3333.25 2221.31)" fill="#FFFFFF"/>
<use xlink:href="#path5_fill" transform="translate(3333.25 2221.31)" fill="url(#paint15_linear)"/>
</g>
<g id="Vector">
<use xlink:href="#path5_fill" transform="translate(3333.25 2225.22)" fill="#FFFFFF"/>
<use xlink:href="#path5_fill" transform="translate(3333.25 2225.22)" fill="url(#paint17_linear)"/>
</g>
<g id="Vector">
<use xlink:href="#path5_fill" transform="translate(3333.25 2229.12)" fill="#FFFFFF"/>
<use xlink:href="#path5_fill" transform="translate(3333.25 2229.12)" fill="url(#paint19_linear)"/>
</g>
<g id="Vector">
<use xlink:href="#path6_fill" transform="translate(3326.92 2236.94)" fill="#FFFFFF"/>
<use xlink:href="#path6_fill" transform="translate(3326.92 2236.94)" fill="url(#paint21_linear)"/>
</g>
<g id="Vector">
<use xlink:href="#path7_fill" transform="translate(3322.17 2204.12)" fill="#FFFFFF"/>
<use xlink:href="#path7_fill" transform="translate(3322.17 2204.12)" fill="url(#paint23_linear)"/>
</g>
</g>
</g>
</g>
<g id="Rectangle 9">
<use xlink:href="#path8_fill" transform="translate(3323 2266)" fill="#A3AF2B"/>
</g>
</g>
</g>
<defs>
<linearGradient id="paint1_linear" x1="0" y1="0" x2="1" y2="0" gradientUnits="userSpaceOnUse" gradientTransform="matrix(2.42378e-16 3.90625 -3.95833 2.39189e-16 3.95833 -2.39189e-16)">
<stop offset="0" stop-color="#FFFFFF"/>
<stop offset="1" stop-color="#FFFFFF" stop-opacity="0"/>
</linearGradient>
<linearGradient id="paint3_linear" x1="0" y1="0" x2="1" y2="0" gradientUnits="userSpaceOnUse" gradientTransform="matrix(2.32683e-15 50 -38 3.06162e-15 38 -3.06162e-15)">
<stop offset="0" stop-color="#FFFFFF"/>
<stop offset="1" stop-color="#FFFFFF" stop-opacity="0"/>
</linearGradient>
<linearGradient id="paint5_linear" x1="0" y1="0" x2="1" y2="0" gradientUnits="userSpaceOnUse" gradientTransform="matrix(8.72561e-16 1.5625 -14.25 9.56755e-17 14.25 -9.56755e-17)">
<stop offset="0" stop-color="#FFFFFF"/>
<stop offset="1" stop-color="#FFFFFF" stop-opacity="0"/>
</linearGradient>
<linearGradient id="paint7_linear" x1="0" y1="0" x2="1" y2="0" gradientUnits="userSpaceOnUse" gradientTransform="matrix(1.35732e-15 1.5625 -22.1667 9.56755e-17 22.1667 -9.56755e-17)">
<stop offset="0" stop-color="#FFFFFF"/>
<stop offset="1" stop-color="#FFFFFF" stop-opacity="0"/>
</linearGradient>
<linearGradient id="paint9_linear" x1="0" y1="0" x2="1" y2="0" gradientUnits="userSpaceOnUse" gradientTransform="matrix(1.45427e-16 1.5625 -2.375 9.56755e-17 2.375 -9.56755e-17)">
<stop offset="0" stop-color="#FFFFFF"/>
<stop offset="1" stop-color="#FFFFFF" stop-opacity="0"/>
</linearGradient>
<linearGradient id="paint11_linear" x1="0" y1="0" x2="1" y2="0" gradientUnits="userSpaceOnUse" gradientTransform="matrix(1.45427e-16 1.5625 -2.375 9.56755e-17 2.375 -9.56755e-17)">
<stop offset="0" stop-color="#FFFFFF"/>
<stop offset="1" stop-color="#FFFFFF" stop-opacity="0"/>
</linearGradient>
<linearGradient id="paint13_linear" x1="0" y1="0" x2="1" y2="0" gradientUnits="userSpaceOnUse" gradientTransform="matrix(1.45427e-16 1.5625 -2.375 9.56755e-17 2.375 -9.56755e-17)">
<stop offset="0" stop-color="#FFFFFF"/>
<stop offset="1" stop-color="#FFFFFF" stop-opacity="0"/>
</linearGradient>
<linearGradient id="paint15_linear" x1="0" y1="0" x2="1" y2="0" gradientUnits="userSpaceOnUse" gradientTransform="matrix(8.24085e-16 1.5625 -13.4583 9.56755e-17 13.4583 -9.56755e-17)">
<stop offset="0" stop-color="#FFFFFF"/>
<stop offset="1" stop-color="#FFFFFF" stop-opacity="0"/>
</linearGradient>
<linearGradient id="paint17_linear" x1="0" y1="0" x2="1" y2="0" gradientUnits="userSpaceOnUse" gradientTransform="matrix(8.24085e-16 1.5625 -13.4583 9.56755e-17 13.4583 -9.56755e-17)">
<stop offset="0" stop-color="#FFFFFF"/>
<stop offset="1" stop-color="#FFFFFF" stop-opacity="0"/>
</linearGradient>
<linearGradient id="paint19_linear" x1="0" y1="0" x2="1" y2="0" gradientUnits="userSpaceOnUse" gradientTransform="matrix(8.24085e-16 1.5625 -13.4583 9.56755e-17 13.4583 -9.56755e-17)">
<stop offset="0" stop-color="#FFFFFF"/>
<stop offset="1" stop-color="#FFFFFF" stop-opacity="0"/>
</linearGradient>
<linearGradient id="paint21_linear" x1="0" y1="0" x2="1" y2="0" gradientUnits="userSpaceOnUse" gradientTransform="matrix(5.33232e-16 1.5625 -8.70833 9.56755e-17 8.70833 -9.56755e-17)">
<stop offset="0" stop-color="#FFFFFF"/>
<stop offset="1" stop-color="#FFFFFF" stop-opacity="0"/>
</linearGradient>
<linearGradient id="paint23_linear" x1="0" y1="0" x2="1" y2="0" gradientUnits="userSpaceOnUse" gradientTransform="matrix(1.93902e-15 40.625 -31.6666 2.48756e-15 31.6666 -2.48756e-15)">
<stop offset="0" stop-color="#FFFFFF"/>
<stop offset="1" stop-color="#FFFFFF" stop-opacity="0"/>
</linearGradient>
<path id="path0_fill" d="M 0.791667 0C 0.354469 0 0 0.349805 0 0.78125C 0 1.2127 0.354469 1.5625 0.791667 1.5625C 1.66468 1.5625 2.375 2.26348 2.375 3.125C 2.375 3.55645 2.72947 3.90625 3.16667 3.90625C 3.60386 3.90625 3.95833 3.55645 3.95833 3.125C 3.95833 1.40186 2.53779 0 0.791667 0Z"/>
<path id="path1_fill" d="M 35.625 0L 2.375 0C 1.06548 0 0 1.05146 0 2.34375L 0 44.5312C 0 45.8235 1.06548 46.875 2.375 46.875L 19.8002 46.875C 19.8106 46.9512 19.8312 47.0265 19.8646 47.0979C 19.9729 47.3291 20.1884 47.4937 20.4424 47.5391L 22.4968 47.9058L 24.311 49.7612C 24.4611 49.9147 24.6672 50 24.8806 50C 24.9132 50 24.946 49.9979 24.9787 49.9939C 25.2261 49.9635 25.4444 49.8198 25.568 49.6063L 27.1497 46.875L 29.8323 46.875L 31.3986 49.6038C 31.5217 49.8183 31.7401 49.9628 31.9879 49.9939C 32.0211 49.998 32.0544 50 32.0874 50C 32.3009 50 32.5069 49.9147 32.657 49.7612L 34.4712 47.9058L 36.5256 47.5391C 36.7791 47.4938 36.9943 47.3298 37.1027 47.0993C 37.2103 46.8707 37.1991 46.6053 37.0736 46.386C 37.6516 45.9449 38 45.2588 38 44.5312L 38 2.34375C 38 1.05146 36.9345 0 35.625 0ZM 1.58333 44.5312L 1.58333 2.34375C 1.58333 1.91299 1.93849 1.5625 2.375 1.5625L 35.625 1.5625C 36.0615 1.5625 36.4167 1.91299 36.4167 2.34375L 36.4167 44.5312C 36.4167 44.6988 36.3599 44.8597 36.2609 44.9921L 33.8435 40.8485C 34.4691 39.8798 34.8333 38.7314 34.8333 37.5C 34.8333 34.0537 31.9922 31.25 28.5 31.25C 25.0078 31.25 22.1667 34.0537 22.1667 37.5C 22.1667 38.7307 22.5304 39.8784 23.1554 40.8468L 20.5261 45.3125L 2.375 45.3125C 1.93849 45.3125 1.58333 44.962 1.58333 44.5312ZM 28.5 42.1875C 25.8809 42.1875 23.75 40.0847 23.75 37.5C 23.75 34.9153 25.8809 32.8125 28.5 32.8125C 31.1191 32.8125 33.25 34.9153 33.25 37.5C 33.25 40.0847 31.1191 42.1875 28.5 42.1875ZM 24.7172 47.9265L 23.4588 46.6395C 23.3434 46.5215 23.1935 46.4424 23.03 46.4132L 21.8349 46.1998L 24.2377 42.1187C 25.0605 42.8589 26.0813 43.3882 27.2113 43.6196L 24.7172 47.9265ZM 28.0546 45.3125L 28.4969 44.5485L 28.9354 45.3125L 28.0546 45.3125ZM 33.9383 46.4132C 33.7748 46.4424 33.6249 46.5215 33.5095 46.6395L 32.2539 47.9234L 29.7841 43.6206C 30.9145 43.3899 31.9357 42.8612 32.7593 42.1215L 35.1381 46.1989L 33.9383 46.4132Z"/>
<path id="path2_fill" d="M 13.4583 1.5625C 13.8955 1.5625 14.25 1.2127 14.25 0.78125C 14.25 0.349805 13.8955 0 13.4583 0L 0.791667 0C 0.354469 0 0 0.349805 0 0.78125C 0 1.2127 0.354469 1.5625 0.791667 1.5625L 13.4583 1.5625Z"/>
<path id="path3_fill" d="M 21.375 0L 0.791667 0C 0.354469 0 0 0.349805 0 0.78125C 0 1.2127 0.354469 1.5625 0.791667 1.5625L 21.375 1.5625C 21.8122 1.5625 22.1667 1.2127 22.1667 0.78125C 22.1667 0.349805 21.8122 0 21.375 0Z"/>
<path id="path4_fill" d="M 0.791667 1.5625L 1.58333 1.5625C 2.02053 1.5625 2.375 1.2127 2.375 0.78125C 2.375 0.349805 2.02053 0 1.58333 0L 0.791667 0C 0.354469 0 0 0.349805 0 0.78125C 0 1.2127 0.354469 1.5625 0.791667 1.5625Z"/>
<path id="path5_fill" d="M 12.6667 0L 0.791667 0C 0.354469 0 0 0.349805 0 0.78125C 0 1.2127 0.354469 1.5625 0.791667 1.5625L 12.6667 1.5625C 13.1039 1.5625 13.4583 1.2127 13.4583 0.78125C 13.4583 0.349805 13.1039 0 12.6667 0Z"/>
<path id="path6_fill" d="M 0 0.78125C 0 1.2127 0.354469 1.5625 0.791667 1.5625L 7.91667 1.5625C 8.35386 1.5625 8.70833 1.2127 8.70833 0.78125C 8.70833 0.349805 8.35386 0 7.91667 0L 0.791667 0C 0.354469 0 0 0.349805 0 0.78125Z"/>
<path id="path7_fill" d="M 15.8333 39.0625L 4.67044 39.0625C 4.35476 37.5343 3.13193 36.3275 1.58333 36.016L 1.58333 4.60898C 3.13193 4.29746 4.35476 3.09072 4.67044 1.5625L 26.9961 1.5625C 27.3118 3.09072 28.5346 4.29746 30.0832 4.60898L 30.0832 28.125C 30.0832 28.5564 30.4377 28.9062 30.8749 28.9062C 31.3121 28.9062 31.6666 28.5564 31.6666 28.125L 31.6666 3.90625C 31.6666 3.4748 31.3121 3.125 30.8749 3.125C 29.5653 3.125 28.4999 2.07363 28.4999 0.78125C 28.4999 0.349805 28.1454 0 27.7082 0L 3.95833 0C 3.52114 0 3.16667 0.349805 3.16667 0.78125C 3.16667 2.07363 2.10128 3.125 0.791667 3.125C 0.354469 3.125 0 3.4748 0 3.90625L 0 36.7188C 0 37.1502 0.354469 37.5 0.791667 37.5C 2.10128 37.5 3.16667 38.5514 3.16667 39.8438C 3.16667 40.2752 3.52114 40.625 3.95833 40.625L 15.8333 40.625C 16.2705 40.625 16.625 40.2752 16.625 39.8438C 16.625 39.4123 16.2705 39.0625 15.8333 39.0625Z"/>
<path id="path8_fill" d="M 0 0L 30 0L 30 2L 0 2L 0 0Z"/>
</defs>
</svg>
