<svg width="50" height="77" viewBox="0 0 50 77" version="1.1" xmlns="http://www.w3.org/2000/svg" xmlns:xlink="http://www.w3.org/1999/xlink">
<title>3</title>
<desc>Created using Figma</desc>
<g id="Canvas" transform="translate(-3433 -2191)">
<g id="3">
<g id="wine-menu">
<g id="Group">
<g id="Group">
<g id="Group">
<g id="Vector">
<use xlink:href="#path0_fill" transform="translate(3436 2202)" fill="#FFFFFF"/>
</g>
<g id="Vector">
<use xlink:href="#path1_fill" transform="translate(3460.14 2208.05)" fill="#FFFFFF"/>
</g>
<g id="Vector">
<use xlink:href="#path2_fill" transform="translate(3461.86 2215.82)" fill="#FFFFFF"/>
</g>
<g id="Vector">
<use xlink:href="#path3_fill" transform="translate(3460.14 2223.6)" fill="#FFFFFF"/>
</g>
<g id="Vector">
<use xlink:href="#path4_fill" transform="translate(3460.14 2227.05)" fill="#FFFFFF"/>
</g>
<g id="Vector">
<use xlink:href="#path5_fill" transform="translate(3472.21 2227.05)" fill="#FFFFFF"/>
</g>
<g id="Vector">
<use xlink:href="#path6_fill" transform="translate(3460.14 2230.51)" fill="#FFFFFF"/>
</g>
<g id="Vector">
<use xlink:href="#path4_fill" transform="translate(3460.14 2233.97)" fill="#FFFFFF"/>
</g>
<g id="Vector">
<use xlink:href="#path5_fill" transform="translate(3472.21 2233.97)" fill="#FFFFFF"/>
</g>
<g id="Vector">
<use xlink:href="#path6_fill" transform="translate(3460.14 2237.42)" fill="#FFFFFF"/>
</g>
<g id="Vector">
<use xlink:href="#path7_fill" transform="translate(3460.14 2240.88)" fill="#FFFFFF"/>
</g>
<g id="Vector">
<use xlink:href="#path5_fill" transform="translate(3472.21 2240.88)" fill="#FFFFFF"/>
</g>
<g id="Vector">
<use xlink:href="#path8_fill" transform="translate(3443 2215)" fill="#FFFFFF"/>
</g>
</g>
</g>
</g>
</g>
<g id="Rectangle 9">
<use xlink:href="#path9_fill" transform="translate(3443 2266)" fill="#A3AF2B"/>
</g>
</g>
</g>
<defs>
<path id="path0_fill" d="M 40.4674 0L 23.2243 0C 22.5586 0 21.9525 0.259071 21.5 0.681425C 21.0475 0.259071 20.4414 0 19.7757 0L 2.53258 0C 1.13611 0 0 1.13844 0 2.5378L 0 47.4622C 0 48.8616 1.13611 50 2.53258 50L 19.7757 50C 20.4414 50 21.0475 49.7409 21.5 49.3186C 21.9525 49.7409 22.5586 50 23.2243 50L 40.4674 50C 41.8639 50 43 48.8616 43 47.4622L 43 2.5378C 43 1.13844 41.8639 0 40.4674 0ZM 20.6917 3.45572L 19.7757 3.45572C 19.3293 3.45572 18.9674 3.81836 18.9674 4.26566C 18.9674 4.71296 19.3293 5.07559 19.7757 5.07559L 20.6917 5.07559L 20.6917 44.9244L 19.7757 44.9244C 19.3293 44.9244 18.9674 45.287 18.9674 45.7343C 18.9674 46.1816 19.3293 46.5443 19.7757 46.5443L 20.6917 46.5443L 20.6917 47.4622C 20.6917 47.9684 20.2808 48.3801 19.7757 48.3801L 2.53258 48.3801C 2.02747 48.3801 1.61654 47.9684 1.61654 47.4622L 1.61654 2.5378C 1.61654 2.03164 2.02747 1.61987 2.53258 1.61987L 19.7757 1.61987C 20.2808 1.61987 20.6917 2.03164 20.6917 2.5378L 20.6917 3.45572ZM 41.3835 47.4622C 41.3835 47.9684 40.9725 48.3801 40.4674 48.3801L 23.2243 48.3801C 22.7192 48.3801 22.3083 47.9684 22.3083 47.4622L 22.3083 46.5443L 23.2243 46.5443C 23.6707 46.5443 24.0326 46.1816 24.0326 45.7343C 24.0326 45.287 23.6707 44.9244 23.2243 44.9244L 22.3083 44.9244L 22.3083 5.07559L 23.2243 5.07559C 23.6707 5.07559 24.0326 4.71296 24.0326 4.26566C 24.0326 3.81836 23.6707 3.45572 23.2243 3.45572L 22.3083 3.45572L 22.3083 2.5378C 22.3083 2.03164 22.7192 1.61987 23.2243 1.61987L 40.4674 1.61987C 40.9725 1.61987 41.3835 2.03164 41.3835 2.5378L 41.3835 47.4622Z"/>
<path id="path1_fill" d="M 12.4474 0L 2.96366 0C 1.32944 0 0 1.33218 0 2.96976C 0 4.60734 1.32944 5.93952 2.96366 5.93952L 12.4474 5.93952C 14.0816 5.93952 15.411 4.60734 15.411 2.96976C 15.411 1.33218 14.0816 0 12.4474 0ZM 12.4474 4.31965L 2.96366 4.31965C 2.2208 4.31965 1.61654 3.71415 1.61654 2.96976C 1.61654 2.22538 2.2208 1.61987 2.96366 1.61987L 12.4474 1.61987C 13.1902 1.61987 13.7945 2.22538 13.7945 2.96976C 13.7945 3.71415 13.1902 4.31965 12.4474 4.31965Z"/>
<path id="path2_fill" d="M 11.1541 1.61987C 11.6005 1.61987 11.9624 1.25724 11.9624 0.809935C 11.9624 0.362635 11.6005 0 11.1541 0L 0.808271 0C 0.36189 0 0 0.362635 0 0.809935C 0 1.25724 0.36189 1.61987 0.808271 1.61987L 11.1541 1.61987Z"/>
<path id="path3_fill" d="M 0 0.809935C 0 1.25724 0.36189 1.61987 0.808271 1.61987L 12.8784 1.61987C 13.3248 1.61987 13.6867 1.25724 13.6867 0.809935C 13.6867 0.362635 13.3248 0 12.8784 0L 0.808271 0C 0.36189 0 0 0.362635 0 0.809935Z"/>
<path id="path4_fill" d="M 0.808271 1.61987L 9.42982 1.61987C 9.8762 1.61987 10.2381 1.25724 10.2381 0.809935C 10.2381 0.362635 9.8762 0 9.42982 0L 0.808271 0C 0.36189 0 0 0.362635 0 0.809935C 0 1.25724 0.36189 1.61987 0.808271 1.61987Z"/>
<path id="path5_fill" d="M 2.53258 0L 0.808271 0C 0.36189 0 0 0.362635 0 0.809935C 0 1.25724 0.36189 1.61987 0.808271 1.61987L 2.53258 1.61987C 2.97896 1.61987 3.34085 1.25724 3.34085 0.809935C 3.34085 0.362635 2.97896 0 2.53258 0Z"/>
<path id="path6_fill" d="M 0.808271 1.61987L 12.8784 1.61987C 13.3248 1.61987 13.6867 1.25724 13.6867 0.809935C 13.6867 0.362635 13.3248 0 12.8784 0L 0.808271 0C 0.36189 0 0 0.362635 0 0.809935C 0 1.25724 0.36189 1.61987 0.808271 1.61987Z"/>
<path id="path7_fill" d="M 9.42982 0L 0.808271 0C 0.36189 0 0 0.362635 0 0.809935C 0 1.25724 0.36189 1.61987 0.808271 1.61987L 9.42982 1.61987C 9.8762 1.61987 10.2381 1.25724 10.2381 0.809935C 10.2381 0.362635 9.8762 0 9.42982 0Z"/>
<path id="path8_fill" d="M 3.94628 15.9091C 3.94628 14.7517 4.87915 13.8047 5.98655 13.8047L 6.73153 13.8047C 7.09846 13.8047 7.39596 13.5149 7.39596 13.1313C 7.39596 12.7477 7.09846 12.4579 6.73153 12.4579L 2.65767 12.4579L 2.65767 11.0269L 6.73153 11.0269C 7.09846 11.0269 7.39596 10.7371 7.39596 10.3535C 7.39596 9.96995 7.09846 9.68013 6.73153 9.68013L 2.65767 9.68013L 2.65767 8.24916L 6.73153 8.24916C 7.09846 8.24916 7.39596 7.95934 7.39596 7.57576C 7.39596 7.19217 7.09846 6.90236 6.73153 6.90236L 2.65767 6.90236L 2.65767 5.47138L 6.73153 5.47138C 7.09846 5.47138 7.39596 5.18157 7.39596 4.79798C 7.39596 4.41439 7.09846 4.12458 6.73153 4.12458L 2.65767 4.12458L 2.65767 2.77778L 6.67112 2.77778C 7.40498 2.77778 8 2.15589 8 1.38889C 8 0.621885 7.40507 0 6.6712 0L 1.31543 0C 0.599042 0 -2.94939e-08 0.670623 -2.94939e-08 1.43418L -2.94939e-08 23.7374C -2.94939e-08 24.4318 0.570451 25 1.23489 25L 2.76511 25C 3.42955 25 3.94636 24.4318 3.94636 23.7374L 3.94636 15.9091L 3.94628 15.9091Z"/>
<path id="path9_fill" d="M 0 0L 30 0L 30 2L 0 2L 0 0Z"/>
</defs>
</svg>
