<svg width="50" height="77" viewBox="0 0 50 77" version="1.1" xmlns="http://www.w3.org/2000/svg" xmlns:xlink="http://www.w3.org/1999/xlink">
<title>4</title>
<desc>Created using Figma</desc>
<g id="Canvas" transform="translate(-3553 -2191)">
<g id="4">
<g id="laptop">
<g id="Group">
<g id="Group">
<g id="Vector">
<use xlink:href="#path0_fill" transform="translate(3559.12 2212.74)" fill="#FFFFFF"/>
</g>
</g>
</g>
<g id="Group">
<g id="Group">
<g id="Vector">
<use xlink:href="#path1_fill" transform="translate(3563.05 2216.55)" fill="#FFFFFF"/>
</g>
</g>
</g>
<g id="Group">
<g id="Group">
<g id="Vector">
<use xlink:href="#path2_fill" transform="translate(3563.05 2225.16)" fill="#FFFFFF"/>
</g>
</g>
</g>
<g id="Group">
<g id="Group">
<g id="Vector">
<use xlink:href="#path3_fill" transform="translate(3553 2210)" fill="#FFFFFF"/>
</g>
</g>
</g>
<g id="Group">
<g id="Group">
<g id="Vector">
<use xlink:href="#path4_fill" transform="translate(3588.51 2217.82)" fill="#FFFFFF"/>
</g>
</g>
</g>
<g id="Group">
<g id="Group">
<g id="Vector">
<use xlink:href="#path5_fill" transform="translate(3573.26 2217.82)" fill="#FFFFFF"/>
</g>
</g>
</g>
<g id="Group">
<g id="Group">
<g id="Vector">
<use xlink:href="#path6_fill" transform="translate(3573.26 2220.81)" fill="#FFFFFF"/>
</g>
</g>
</g>
<g id="Group">
<g id="Group">
<g id="Vector">
<use xlink:href="#path7_fill" transform="translate(3573.26 2226.41)" fill="#FFFFFF"/>
</g>
</g>
</g>
<g id="Group">
<g id="Group">
<g id="Vector">
<use xlink:href="#path8_fill" transform="translate(3573.26 2229.4)" fill="#FFFFFF"/>
</g>
</g>
</g>
</g>
<g id="Rectangle 9">
<use xlink:href="#path9_fill" transform="translate(3563 2266)" fill="#A3AF2B"/>
</g>
</g>
</g>
<defs>
<path id="path0_fill" d="M 36.2078 3.07591e-07L 1.54892 3.07591e-07C 0.694823 3.07591e-07 1.3411e-07 0.689549 1.3411e-07 1.53717L 1.3411e-07 21.6104C 1.3411e-07 22.458 0.694823 23.1475 1.54892 23.1475L 36.2078 23.1475C 37.0619 23.1475 37.7568 22.458 37.7568 21.6104L 37.7568 1.53717C 37.7568 0.689549 37.0619 3.07591e-07 36.2078 3.07591e-07ZM 36.3335 21.6104C 36.3335 21.6792 36.2771 21.7351 36.2078 21.7351L 1.54892 21.7351C 1.47959 21.7352 1.42314 21.6792 1.42314 21.6104L 1.42314 1.53717C 1.42314 1.46836 1.47959 1.41244 1.54883 1.41244L 36.2078 1.41244C 36.2772 1.41244 36.3335 1.46836 36.3335 1.53717L 36.3335 21.6104Z"/>
<path id="path1_fill" d="M 6.7494 3.54913e-08L 1.65927 3.54913e-08C 0.744334 3.54913e-08 2.14576e-07 0.738685 2.14576e-07 1.64678L 2.14576e-07 5.25685C 2.14576e-07 6.16495 0.744334 6.90363 1.65927 6.90363L 6.7494 6.90363C 7.66444 6.90363 8.40877 6.16485 8.40877 5.25685L 8.40877 1.64678C 8.40877 0.738685 7.66444 3.54913e-08 6.7494 3.54913e-08ZM 6.98563 5.25695C 6.98563 5.38624 6.87967 5.49139 6.7494 5.49139L 1.65927 5.49139C 1.529 5.49139 1.42314 5.38624 1.42314 5.25695L 1.42314 1.64687C 1.42314 1.51759 1.529 1.41244 1.65927 1.41244L 6.7494 1.41244C 6.87967 1.41244 6.98563 1.51759 6.98563 1.64687L 6.98563 5.25695Z"/>
<path id="path2_fill" d="M 6.7494 6.38843e-07L 1.65927 6.38843e-07C 0.744334 6.38843e-07 2.14576e-07 0.738686 2.14576e-07 1.64678L 2.14576e-07 5.25686C 2.14576e-07 6.16485 0.744334 6.90363 1.65927 6.90363L 6.7494 6.90363C 7.66444 6.90363 8.40877 6.16485 8.40877 5.25686L 8.40877 1.64678C 8.40877 0.738686 7.66444 6.38843e-07 6.7494 6.38843e-07ZM 6.98563 5.25686C 6.98563 5.38614 6.87967 5.49129 6.7494 5.49129L 1.65927 5.49129C 1.529 5.49129 1.42314 5.38614 1.42314 5.25686L 1.42314 1.64678C 1.42314 1.51749 1.529 1.41234 1.65927 1.41234L 6.7494 1.41234C 6.87967 1.41234 6.98563 1.51749 6.98563 1.64678L 6.98563 5.25686Z"/>
<path id="path3_fill" d="M 49.2883 27.2071L 46.6352 27.2071L 46.6352 2.72418C 46.6352 1.2221 45.4037 3.54913e-08 43.8902 3.54913e-08L 6.10975 3.54913e-08C 4.59618 3.54913e-08 3.36474 1.2221 3.36474 2.72418L 3.36474 16.7768C 3.36474 17.1668 3.68329 17.483 4.07636 17.483C 4.46943 17.483 4.78798 17.1669 4.78798 16.7768L 4.78798 2.72418C 4.78798 2.0009 5.38095 1.41234 6.10985 1.41234L 43.8903 1.41234C 44.6193 1.41234 45.2122 2.00081 45.2122 2.72418L 45.2122 27.2071L 4.78788 27.2071L 4.78788 20.4174C 4.78788 20.0275 4.46933 19.7112 4.07626 19.7112C 3.6832 19.7112 3.36464 20.0274 3.36464 20.4174L 3.36464 27.2071L 0.71162 27.2071C 0.318554 27.2071 0 27.5232 0 27.9133L 0 29.6652C 0 31.446 1.45986 32.8947 3.25429 32.8947L 6.20409 32.8947L 43.7959 32.8947L 46.7457 32.8947C 48.5401 32.8947 50 31.446 50 29.6652L 50 27.9133C 49.9999 27.5233 49.6814 27.2071 49.2883 27.2071ZM 7.08456 31.4824C 7.34569 30.9691 7.88192 30.6164 8.49979 30.6164L 41.4999 30.6164C 42.1178 30.6164 42.6541 30.9691 42.9152 31.4824L 7.08456 31.4824ZM 48.5769 29.6652L 48.5768 29.6652C 48.5768 30.6672 47.7553 31.4824 46.7457 31.4824L 44.4217 31.4824C 44.1011 30.1766 42.9132 29.204 41.5001 29.204L 8.49989 29.204C 7.08671 29.204 5.89882 30.1766 5.57831 31.4824L 3.25429 31.4824C 2.24462 31.4824 1.42324 30.6672 1.42324 29.6652L 1.42324 28.6194L 4.07636 28.6194L 45.9237 28.6194L 48.5769 28.6194L 48.5769 29.6652Z"/>
<path id="path4_fill" d="M 3.58163 3.31252e-07L 0.71162 3.31252e-07C 0.318554 3.31252e-07 -1.47819e-06 0.316137 -1.47819e-06 0.706219C 9.61779e-05 1.0963 0.318652 1.41244 0.71162 1.41244L 3.58163 1.41244C 3.9747 1.41244 4.29325 1.0963 4.29325 0.706219C 4.29325 0.316234 3.9747 3.31252e-07 3.58163 3.31252e-07Z"/>
<path id="path5_fill" d="M 12.3696 3.31252e-07L 0.71162 3.31252e-07C 0.318555 3.31252e-07 4.05311e-07 0.316137 4.05311e-07 0.706219C 4.05311e-07 1.0963 0.318555 1.41244 0.71162 1.41244L 12.3696 1.41244C 12.7627 1.41244 13.0812 1.0963 13.0812 0.706219C 13.0812 0.316234 12.7627 3.31252e-07 12.3696 3.31252e-07Z"/>
<path id="path6_fill" d="M 18.8331 -3.90404e-07L 0.71162 -3.90404e-07C 0.318555 -3.90404e-07 4.05311e-07 0.316136 4.05311e-07 0.706218C 4.05311e-07 1.0963 0.318555 1.41244 0.71162 1.41244L 18.8331 1.41244C 19.2261 1.41244 19.5447 1.0963 19.5447 0.706218C 19.5447 0.316233 19.2261 -3.90404e-07 18.8331 -3.90404e-07Z"/>
<path id="path7_fill" d="M 18.8331 -5.91521e-07L 0.71162 -5.91521e-07C 0.318555 -5.91521e-07 4.05311e-07 0.316137 4.05311e-07 0.70622C 4.05311e-07 1.0963 0.318555 1.41244 0.71162 1.41244L 18.8331 1.41244C 19.2261 1.41244 19.5447 1.0963 19.5447 0.70622C 19.5447 0.316234 19.2261 -5.91521e-07 18.8331 -5.91521e-07Z"/>
<path id="path8_fill" d="M 18.8331 8.51791e-07L 0.71162 8.51791e-07C 0.318555 8.51791e-07 4.05311e-07 0.316136 4.05311e-07 0.706218C 4.05311e-07 1.0963 0.318555 1.41244 0.71162 1.41244L 18.8331 1.41244C 19.2261 1.41244 19.5447 1.0963 19.5447 0.706218C 19.5447 0.316233 19.2261 8.51791e-07 18.8331 8.51791e-07Z"/>
<path id="path9_fill" d="M 0 0L 30 0L 30 2L 0 2L 0 0Z"/>
</defs>
</svg>
